<?xml version="1.0" encoding="UTF-8" standalone="no"?>
<!DOCTYPE svg PUBLIC "-//W3C//DTD SVG 1.1//EN"
 "http://www.w3.org/Graphics/SVG/1.1/DTD/svg11.dtd">
<!-- Generated by graphviz version 2.43.0 (0)
 -->
<!-- Title: %3 Pages: 1 -->
<svg width="584pt" height="476pt"
 viewBox="0.00 0.00 583.81 476.00" xmlns="http://www.w3.org/2000/svg" xmlns:xlink="http://www.w3.org/1999/xlink">
<g id="graph0" class="graph" transform="scale(1 1) rotate(0) translate(4 472)">
<title>%3</title>
<polygon fill="white" stroke="transparent" points="-4,4 -4,-472 579.81,-472 579.81,4 -4,4"/>
<!-- [root] aws_instance.example -->
<g id="node1" class="node">
<title>[root] aws_instance.example</title>
<polygon fill="none" stroke="black" points="393.21,-324 252.08,-324 252.08,-288 393.21,-288 393.21,-324"/>
<text text-anchor="middle" x="322.64" y="-301.8" font-family="Times,serif" font-size="14.00">aws_instance.example</text>
</g>
<!-- [root] aws_network_interface.foo -->
<g id="node2" class="node">
<title>[root] aws_network_interface.foo</title>
<polygon fill="none" stroke="black" points="406.91,-252 238.37,-252 238.37,-216 406.91,-216 406.91,-252"/>
<text text-anchor="middle" x="322.64" y="-229.8" font-family="Times,serif" font-size="14.00">aws_network_interface.foo</text>
</g>
<!-- [root] aws_instance.example&#45;&gt;[root] aws_network_interface.foo -->
<g id="edge1" class="edge">
<title>[root] aws_instance.example&#45;&gt;[root] aws_network_interface.foo</title>
<path fill="none" stroke="black" d="M322.64,-287.7C322.64,-279.98 322.64,-270.71 322.64,-262.11"/>
<polygon fill="black" stroke="black" points="326.14,-262.1 322.64,-252.1 319.14,-262.1 326.14,-262.1"/>
</g>
<!-- [root] aws_subnet.my_subnet -->
<g id="node3" class="node">
<title>[root] aws_subnet.my_subnet</title>
<polygon fill="none" stroke="black" points="395.91,-180 249.38,-180 249.38,-144 395.91,-144 395.91,-180"/>
<text text-anchor="middle" x="322.64" y="-157.8" font-family="Times,serif" font-size="14.00">aws_subnet.my_subnet</text>
</g>
<!-- [root] aws_network_interface.foo&#45;&gt;[root] aws_subnet.my_subnet -->
<g id="edge2" class="edge">
<title>[root] aws_network_interface.foo&#45;&gt;[root] aws_subnet.my_subnet</title>
<path fill="none" stroke="black" d="M322.64,-215.7C322.64,-207.98 322.64,-198.71 322.64,-190.11"/>
<polygon fill="black" stroke="black" points="326.14,-190.1 322.64,-180.1 319.14,-190.1 326.14,-190.1"/>
</g>
<!-- [root] aws_vpc.example_vpc -->
<g id="node4" class="node">
<title>[root] aws_vpc.example_vpc</title>
<polygon fill="none" stroke="black" points="394.26,-108 251.02,-108 251.02,-72 394.26,-72 394.26,-108"/>
<text text-anchor="middle" x="322.64" y="-85.8" font-family="Times,serif" font-size="14.00">aws_vpc.example_vpc</text>
</g>
<!-- [root] aws_subnet.my_subnet&#45;&gt;[root] aws_vpc.example_vpc -->
<g id="edge3" class="edge">
<title>[root] aws_subnet.my_subnet&#45;&gt;[root] aws_vpc.example_vpc</title>
<path fill="none" stroke="black" d="M322.64,-143.7C322.64,-135.98 322.64,-126.71 322.64,-118.11"/>
<polygon fill="black" stroke="black" points="326.14,-118.1 322.64,-108.1 319.14,-118.1 326.14,-118.1"/>
</g>
<!-- [root] provider.aws -->
<g id="node5" class="node">
<title>[root] provider.aws</title>
<polygon fill="none" stroke="black" points="322.64,-36 244.04,-18 322.64,0 401.25,-18 322.64,-36"/>
<text text-anchor="middle" x="322.64" y="-13.8" font-family="Times,serif" font-size="14.00">provider.aws</text>
</g>
<!-- [root] aws_vpc.example_vpc&#45;&gt;[root] provider.aws -->
<g id="edge4" class="edge">
<title>[root] aws_vpc.example_vpc&#45;&gt;[root] provider.aws</title>
<path fill="none" stroke="black" d="M322.64,-71.7C322.64,-63.98 322.64,-54.71 322.64,-46.11"/>
<polygon fill="black" stroke="black" points="326.14,-46.1 322.64,-36.1 319.14,-46.1 326.14,-46.1"/>
</g>
<!-- [root] meta.count&#45;boundary (EachMode fixup) -->
<g id="node6" class="node">
<title>[root] meta.count&#45;boundary (EachMode fixup)</title>
<ellipse fill="none" stroke="black" cx="174.64" cy="-378" rx="174.79" ry="18"/>
<text text-anchor="middle" x="174.64" y="-373.8" font-family="Times,serif" font-size="14.00">[root] meta.count&#45;boundary (EachMode fixup)</text>
</g>
<!-- [root] meta.count&#45;boundary (EachMode fixup)&#45;&gt;[root] aws_instance.example -->
<g id="edge5" class="edge">
<title>[root] meta.count&#45;boundary (EachMode fixup)&#45;&gt;[root] aws_instance.example</title>
<path fill="none" stroke="black" d="M210.09,-360.23C230.21,-350.72 255.59,-338.71 277.16,-328.51"/>
<polygon fill="black" stroke="black" points="278.91,-331.56 286.46,-324.12 275.92,-325.23 278.91,-331.56"/>
</g>
<!-- [root] provider.aws (close) -->
<g id="node7" class="node">
<title>[root] provider.aws (close)</title>
<ellipse fill="none" stroke="black" cx="471.64" cy="-378" rx="104.33" ry="18"/>
<text text-anchor="middle" x="471.64" y="-373.8" font-family="Times,serif" font-size="14.00">[root] provider.aws (close)</text>
</g>
<!-- [root] provider.aws (close)&#45;&gt;[root] aws_instance.example -->
<g id="edge6" class="edge">
<title>[root] provider.aws (close)&#45;&gt;[root] aws_instance.example</title>
<path fill="none" stroke="black" d="M437.46,-360.94C416.94,-351.3 390.57,-338.91 368.28,-328.44"/>
<polygon fill="black" stroke="black" points="369.55,-325.17 359.01,-324.08 366.57,-331.5 369.55,-325.17"/>
</g>
<!-- [root] root -->
<g id="node8" class="node">
<title>[root] root</title>
<ellipse fill="none" stroke="black" cx="322.64" cy="-450" rx="46.9" ry="18"/>
<text text-anchor="middle" x="322.64" y="-445.8" font-family="Times,serif" font-size="14.00">[root] root</text>
</g>
<!-- [root] root&#45;&gt;[root] meta.count&#45;boundary (EachMode fixup) -->
<g id="edge7" class="edge">
<title>[root] root&#45;&gt;[root] meta.count&#45;boundary (EachMode fixup)</title>
<path fill="none" stroke="black" d="M294.11,-435.5C272.81,-425.43 243.3,-411.47 218.94,-399.95"/>
<polygon fill="black" stroke="black" points="220.42,-396.78 209.88,-395.67 217.43,-403.11 220.42,-396.78"/>
</g>
<!-- [root] root&#45;&gt;[root] provider.aws (close) -->
<g id="edge8" class="edge">
<title>[root] root&#45;&gt;[root] provider.aws (close)</title>
<path fill="none" stroke="black" d="M351.02,-435.67C372.81,-425.43 403.27,-411.12 428.13,-399.44"/>
<polygon fill="black" stroke="black" points="429.79,-402.53 437.36,-395.11 426.82,-396.19 429.79,-402.53"/>
</g>
</g>
</svg>
